<svg width="117" height="17" viewBox="0 0 117 17" fill="none" xmlns="http://www.w3.org/2000/svg">
<path d="M97.8188 16.3984C98.3421 13.8131 98.6167 11.1376 98.6167 8.39795C98.6167 5.65865 98.3421 2.98347 97.819 0.398438H108.5C112.918 0.398438 116.5 3.98016 116.5 8.39844C116.5 12.8167 112.918 16.3984 108.5 16.3984H97.8188Z" fill="#805AD5"/>
<path d="M19.1811 16.3984H8.5C4.08172 16.3984 0.5 12.8167 0.5 8.39844C0.5 3.98016 4.08172 0.398438 8.5 0.398438H19.181C18.6579 2.98347 18.3833 5.65865 18.3833 8.39795C18.3833 11.1376 18.6579 13.8131 19.1811 16.3984Z" fill="#805AD5"/>
<path d="M24.28 4.64244H29.968V6.46644H26.86V8.13444H29.74V9.64644H26.86V12.8984H24.28V4.64244Z" fill="#805AD5"/>
<path d="M33.9005 12.9944C33.2285 12.9944 32.6285 12.8624 32.1005 12.5984C31.5805 12.3344 31.1725 11.9704 30.8765 11.5064C30.5885 11.0344 30.4445 10.4944 30.4445 9.88644C30.4445 9.27844 30.5925 8.74244 30.8885 8.27844C31.1845 7.80644 31.5925 7.44244 32.1125 7.18644C32.6405 6.93044 33.2405 6.80244 33.9125 6.80244C34.5925 6.80244 35.1925 6.93444 35.7125 7.19844C36.2405 7.45444 36.6485 7.81444 36.9365 8.27844C37.2245 8.74244 37.3685 9.27844 37.3685 9.88644C37.3685 10.5024 37.2205 11.0464 36.9245 11.5184C36.6365 11.9824 36.2285 12.3464 35.7005 12.6104C35.1805 12.8664 34.5805 12.9944 33.9005 12.9944ZM33.9245 11.1944C34.2525 11.1944 34.5205 11.0744 34.7285 10.8344C34.9445 10.5864 35.0525 10.2704 35.0525 9.88644C35.0525 9.50244 34.9445 9.19044 34.7285 8.95044C34.5205 8.70244 34.2525 8.57844 33.9245 8.57844C33.5965 8.57844 33.3245 8.70244 33.1085 8.95044C32.9005 9.19044 32.7965 9.50244 32.7965 9.88644C32.7965 10.2704 32.9005 10.5864 33.1085 10.8344C33.3245 11.0744 33.5965 11.1944 33.9245 11.1944Z" fill="#805AD5"/>
<path d="M41.424 12.9944C40.752 12.9944 40.152 12.8624 39.624 12.5984C39.104 12.3344 38.696 11.9704 38.4 11.5064C38.112 11.0344 37.968 10.4944 37.968 9.88644C37.968 9.27844 38.116 8.74244 38.412 8.27844C38.708 7.80644 39.116 7.44244 39.636 7.18644C40.164 6.93044 40.764 6.80244 41.436 6.80244C42.116 6.80244 42.716 6.93444 43.236 7.19844C43.764 7.45444 44.172 7.81444 44.46 8.27844C44.748 8.74244 44.892 9.27844 44.892 9.88644C44.892 10.5024 44.744 11.0464 44.448 11.5184C44.16 11.9824 43.752 12.3464 43.224 12.6104C42.704 12.8664 42.104 12.9944 41.424 12.9944ZM41.448 11.1944C41.776 11.1944 42.044 11.0744 42.252 10.8344C42.468 10.5864 42.576 10.2704 42.576 9.88644C42.576 9.50244 42.468 9.19044 42.252 8.95044C42.044 8.70244 41.776 8.57844 41.448 8.57844C41.12 8.57844 40.848 8.70244 40.632 8.95044C40.424 9.19044 40.32 9.50244 40.32 9.88644C40.32 10.2704 40.424 10.5864 40.632 10.8344C40.848 11.0744 41.12 11.1944 41.448 11.1944Z" fill="#805AD5"/>
<path d="M48.4194 12.9944C47.8754 12.9944 47.3794 12.8504 46.9314 12.5624C46.4914 12.2744 46.1434 11.8944 45.8874 11.4224C45.6314 10.9424 45.5034 10.4344 45.5034 9.89844C45.5034 9.33044 45.6354 8.81044 45.8994 8.33844C46.1714 7.85844 46.5314 7.48244 46.9794 7.21044C47.4354 6.93844 47.9194 6.80244 48.4314 6.80244C48.8954 6.80244 49.2874 6.89844 49.6074 7.09044C49.9354 7.28244 50.1994 7.59044 50.3994 8.01444V4.99044L52.9314 4.61844V12.8984H50.3994V11.7824C50.0234 12.5904 49.3634 12.9944 48.4194 12.9944ZM49.2114 11.0984C49.5474 11.0984 49.8274 10.9784 50.0514 10.7384C50.2834 10.4984 50.3994 10.2184 50.3994 9.89844V9.85044C50.3994 9.53844 50.2794 9.27044 50.0394 9.04644C49.7994 8.81444 49.5234 8.69844 49.2114 8.69844C48.8754 8.69844 48.5914 8.81844 48.3594 9.05844C48.1354 9.29044 48.0234 9.57044 48.0234 9.89844C48.0234 10.2344 48.1394 10.5184 48.3714 10.7504C48.6114 10.9824 48.8914 11.0984 49.2114 11.0984Z" fill="#805AD5"/>
<path d="M56.0489 4.64244H58.7489L59.5289 9.91044L60.3329 6.04644H63.1289L63.9449 9.91044L64.7249 4.64244H67.4249L65.5529 12.8984H62.7569L61.7369 8.45844L60.7169 12.8984H57.9209L56.0489 4.64244Z" fill="#805AD5"/>
<path d="M70.8849 12.9944C70.2129 12.9944 69.6129 12.8624 69.0849 12.5984C68.5649 12.3344 68.1569 11.9704 67.8609 11.5064C67.5729 11.0344 67.4289 10.4944 67.4289 9.88644C67.4289 9.27844 67.5769 8.74244 67.8729 8.27844C68.1689 7.80644 68.5769 7.44244 69.0969 7.18644C69.6249 6.93044 70.2249 6.80244 70.8969 6.80244C71.5769 6.80244 72.1769 6.93444 72.6969 7.19844C73.2249 7.45444 73.6329 7.81444 73.9209 8.27844C74.2089 8.74244 74.3529 9.27844 74.3529 9.88644C74.3529 10.5024 74.2049 11.0464 73.9089 11.5184C73.6209 11.9824 73.2129 12.3464 72.6849 12.6104C72.1649 12.8664 71.5649 12.9944 70.8849 12.9944ZM70.9089 11.1944C71.2369 11.1944 71.5049 11.0744 71.7129 10.8344C71.9289 10.5864 72.0369 10.2704 72.0369 9.88644C72.0369 9.50244 71.9289 9.19044 71.7129 8.95044C71.5049 8.70244 71.2369 8.57844 70.9089 8.57844C70.5809 8.57844 70.3089 8.70244 70.0929 8.95044C69.8849 9.19044 69.7809 9.50244 69.7809 9.88644C69.7809 10.2704 69.8849 10.5864 70.0929 10.8344C70.3089 11.0744 70.5809 11.1944 70.9089 11.1944Z" fill="#805AD5"/>
<path d="M75.2523 6.97044H77.7843V8.19444C77.9683 7.72244 78.2163 7.37444 78.5283 7.15044C78.8483 6.91844 79.2203 6.80244 79.6443 6.80244L79.9923 8.75844C79.2323 8.75844 78.6723 8.84244 78.3123 9.01044C77.9603 9.17044 77.7843 9.42644 77.7843 9.77844V12.8984H75.2523V6.97044Z" fill="#805AD5"/>
<path d="M82.8839 12.9944C82.2039 12.9944 81.6759 12.7824 81.2999 12.3584C80.9319 11.9264 80.7479 11.3384 80.7479 10.5944V4.99044L83.2799 4.61844V10.4144C83.2799 10.6384 83.3319 10.8024 83.4359 10.9064C83.5479 11.0024 83.7399 11.0504 84.0119 11.0504C84.2119 11.0504 84.4079 11.0024 84.5999 10.9064L84.6839 12.5864C84.1479 12.8584 83.5479 12.9944 82.8839 12.9944Z" fill="#805AD5"/>
<path d="M87.935 12.9944C87.391 12.9944 86.895 12.8504 86.447 12.5624C86.007 12.2744 85.659 11.8944 85.403 11.4224C85.147 10.9424 85.019 10.4344 85.019 9.89844C85.019 9.33044 85.151 8.81044 85.415 8.33844C85.687 7.85844 86.047 7.48244 86.495 7.21044C86.951 6.93844 87.435 6.80244 87.947 6.80244C88.411 6.80244 88.803 6.89844 89.123 7.09044C89.451 7.28244 89.715 7.59044 89.915 8.01444V4.99044L92.447 4.61844V12.8984H89.915V11.7824C89.539 12.5904 88.879 12.9944 87.935 12.9944ZM88.727 11.0984C89.063 11.0984 89.343 10.9784 89.567 10.7384C89.799 10.4984 89.915 10.2184 89.915 9.89844V9.85044C89.915 9.53844 89.795 9.27044 89.555 9.04644C89.315 8.81444 89.039 8.69844 88.727 8.69844C88.391 8.69844 88.107 8.81844 87.875 9.05844C87.651 9.29044 87.539 9.57044 87.539 9.89844C87.539 10.2344 87.655 10.5184 87.887 10.7504C88.127 10.9824 88.407 11.0984 88.727 11.0984Z" fill="#805AD5"/>
</svg>
